<svg width="67" height="90" viewBox="0 0 67 90" fill="none" xmlns="http://www.w3.org/2000/svg">
<path d="M48.3767 55.8256C55.1608 57.5821 60.6058 60.4874 63.8238 64.0677C67.0419 67.648 67.8432 71.6923 66.0971 75.541C64.3509 79.3898 60.1604 82.816 54.2088 85.2611C48.2571 87.7062 40.8953 89.0259 33.3237 89.0051C25.7522 88.9843 18.4174 87.6242 12.5153 85.1465C6.6132 82.6688 2.49194 79.2198 0.823462 75.3616C-0.845021 71.5035 0.0376881 67.4639 3.32767 63.9014C6.61765 60.339 12.1208 57.4638 18.94 55.7447L20.5562 57.4941C14.494 59.0224 9.60162 61.5784 6.67683 64.7455C3.75204 67.9125 2.96731 71.5037 4.45059 74.9336C5.93387 78.3635 9.59766 81.4297 14.8446 83.6323C20.0916 85.835 26.6122 87.0441 33.3433 87.0626C40.0744 87.0811 46.6191 85.9079 51.9101 83.7342C57.2011 81.5605 60.9265 78.5146 62.4787 75.0931C64.031 71.6715 63.3187 68.0762 60.4578 64.8933C57.597 61.7104 52.7564 59.1276 46.7253 57.5661L48.3767 55.8256Z" fill="#1081E0"/>
<path d="M33.5 73L52.5 45.5047C68 20.5052 50.5001 -4.14252e-06 33.5 0.500172C16.4999 -4.14252e-06 -1.00006 20.5052 14.5 45.5047L33.5 73Z" fill="#1081E0"/>
<path d="M33.5 34C38.7308 34 42 30.7308 42 25.5C42 20.2692 38.7308 17 33.5 17C28.2692 17 25 21.5769 25 25.5C25 29.4231 28.2692 34 33.5 34Z" fill="white"/>
</svg>
